<?xml version="1.0" encoding="utf-8"?>

<!DOCTYPE svg PUBLIC "-//W3C//DTD SVG 1.1//EN" "http://www.w3.org/Graphics/SVG/1.1/DTD/svg11.dtd">
<svg version="1.1" id="Layer_1" xmlns="http://www.w3.org/2000/svg" xmlns:xlink="http://www.w3.org/1999/xlink" x="0px" y="0px"
	 viewBox="0 0 2614 1105.999" enable-background="new 0 0 2614 1105.999" xml:space="preserve">
<g>
	<path  fill="#0dece280" d="M2572.27,841.63c0.066-255.712,0.072-239.079-0.2-240.5c-0.851-0.429,2.079-0.235-40.53-0.27
		c-0.41-7.76-0.04-15.55-0.18-23.31c-5.07-0.11-10.14,0-15.2-0.09c-0.43,7.79,0.03,15.6-0.22,23.39
		c-8.46,0.07-16.91-0.03-25.35,0.04c-0.12,33.86-0.04,67.72-0.03,101.58c-11.7-0.01-23.39,0.01-35.07-0.01
		c-0.05,46.46-0.03,92.93-0.02,139.39c-3.58,0-7.15-0.03-10.71,0.02c0.02-63.45,0-126.89,0-190.34c2.95,0,5.9,0.03,8.86-0.01
		c0.14-3.27,0.15-6.52-0.02-9.78c-2.95,0.02-5.89,0.05-8.82-0.04c-0.05-3.65,0-7.29-0.02-10.94c3.52-0.51,7.28,0.42,10.69-0.45
		c0.28-2.84,0.03-5.7,0.13-8.54c-5.4-0.34-10.82-0.03-16.21-0.12c-0.601-11.337-7.063-135.856-7.44-147.64
		c-1.084,7.471-6.802,137.095-8.15,147.64c-5.27-0.03-10.54,0-15.8-0.03c-0.1,2.99-0.08,6-0.03,9c3.56,0.06,7.12-0.02,10.7,0.06
		c0.07,3.68,0.08,7.36-0.01,11.04c-2.96,0.04-5.91,0.03-8.85,0.06c-0.06,3.23-0.04,6.48,0.01,9.73c2.94,0.05,5.89,0.02,8.85,0.07
		c0.11,63.42,0.03,126.84,0.03,190.26c-6.3,0-12.59,0.02-18.88-0.01c-0.02-13.6-0.04-27.19,0-40.78c-3.19,0-6.37-0.06-9.54,0v-0.01
		c1.075-0.02,16.875-0.023,17.68-0.02c0.08-5,0.06-10.01,0.02-15.02c-9.38-0.03-18.765-0.01-28.16-0.01
		c-0.05-11.36-0.1-22.71,0.05-34.07c3.49-0.05,6.99,0.06,10.5-0.08c0.07-3.21,0.06-6.41,0.01-9.62c-2.04-0.05-4.06-0.1-6.07-0.18
		c-1.56-13.621-6.984-29.151-20.63-31.02c-0.18-68.55,0-137.13-0.08-205.69c-14.38-0.13-28.76,0.1-43.14-0.12
		c0-10.54,0.05-21.07-0.01-31.61c-10.34,0.04-20.68-0.19-31.01,0.11c-0.104,31.924,0.205,30.096-0.26,31.39
		c-5.75,0.49-11.54,0.05-17.3,0.21c-0.26,13.27,0.003,174.355-0.2,185.56c-4.46-0.02-8.91-0.01-13.35-0.01
		c-0.04,29.17-0.01,58.35-0.02,87.53c-10.75,0-21.49,0.03-32.23-0.02c0.01-59.92,0.01-119.84,0-179.76
		c-15.97,0.03-31.94,0.02-47.9,0.01c0.18-10.722,0.107-75.802,0.03-80.81c-20.89,0.03-41.78-0.06-62.66,0.04
		c-0.02,63.3,0.05,126.6-0.04,189.91c-9.18,1.68-18.18,4.46-26.46,8.84c-0.03-64.9,0.03-129.8-0.02-194.7
		c-32.8-0.01-65.6-0.01-98.4,0c0.03,85.5,0,171,0.01,256.49c-6.44,0.01-12.89-0.04-19.34,0.03c-4.65,7.33-9.48,14.54-14.16,21.86
		c0.034-386.319,0.034-361.781-0.13-365.2c-2.75-3.83-5.89-7.36-8.8-11.06c0.038-109.346,1.945-79.01-5.9-97.73
		c0-0.01,0-0.01,0-0.01c-0.026-1.011-0.825-26.148-2.72-30.72c2-3.57,4.24-7,6.32-10.53c-3.11-0.44-6.33-0.18-9.19,1.17
		c-0.01,0-0.01,0-0.02,0l-0.79,0.33c-0.25-0.68-0.46-1.35-0.65-2.02c2.02-3.2,3.52-6.7,5.53-9.91c-2.96-0.25-6.01,0.06-8.62,1.56
		c-0.52-0.68-0.96-1.4-1.33-2.14c1.85-3.17,2.96-6.71,4.86-9.86c-2.79-0.13-5.59,0.39-8.01,1.82c-0.42-0.98-0.8-1.95-1.17-2.93
		c1.9-2.81,2.37-6.32,4.03-9.29c-2.47,0.03-4.93,0.57-6.96,1.98c-0.54-1.31-1.06-2.61-1.55-3.92l0.81-0.23
		c0.9-2.75,1.63-5.55,2.54-8.31c-3.87,0.595-4.95,1.698-5.95,2.07c-0.67-1.47-1.23-2.96-1.8-4.46c0.25-0.05,0.76-0.17,1.02-0.23
		c0.64-2.57,1.19-5.17,1.65-7.78c-1.76,0.44-3.53,1.06-4.78,2.42c-2.309-4.742-2.076-4.54-2.25-5.54c0.61-0.05,1.23-0.11,1.87-0.17
		c0.03-2.12,0.03-4.24-0.01-6.36c-0.8-0.14-1.57-0.26-2.32-0.38c-0.723-2.843-2.81-90.004-3.17-97.33
		c-0.715,9.138-2.151,77.851-3.22,97.25c-0.83,0.14-1.62,0.28-2.4,0.42c-0.572,8.993,1.966,5.644-1.45,11.94
		c-1.36-1.14-3-1.83-4.68-2.25c0.4,2.62,0.94,5.23,1.62,7.79c0.22,0.06,0.68,0.16,0.9,0.21c-0.45,1.58-1,3.16-2.05,4.44
		c-1.63-1.26-3.64-1.73-5.61-2.02c0.9,2.68,1.61,5.44,2.51,8.13l0.77,0.35c-0.52,1.27-0.6,2.99-1.96,3.69
		c-1.94-1.21-4.2-1.67-6.45-1.71c1.61,2.96,2.1,6.45,3.99,9.25c-0.4,0.99-0.8,1.97-1.19,2.95c-2.378-1.424-5.23-1.954-7.92-1.78
		c1.91,3.16,2.88,6.8,4.91,9.89c1.19,0.31,2.4,0.44,3.62,0.5c-1.22-0.05-2.43-0.18-3.62-0.49c-0.44,0.69-0.85,1.4-1.24,2.11
		c-2.664-1.494-5.73-1.836-8.8-1.58c1.94,3.19,3.52,6.58,5.39,9.81c-0.06,0.49-0.17,1.46-0.22,1.94
		c-2.078-0.455-5.241-2.126-10.25-1.32c2.03,3.51,4.21,6.93,6.29,10.42c-1.95,4.259-2.416,26.025-2.38,27.16
		c-7.248,23.472-5.353-9.849-5.51,100.44c-6.974,31.485-6.191-61.832-6.15,223.47c-15.95,0.13-31.91-0.02-47.86,0.08
		c-0.24,51.78-0.01,103.57-0.12,155.36c-0.623-0.013-1.701-0.018-2.28-0.13c-0.05-126.31,0.12-252.63-0.03-378.95
		c-5.83,2.09-11.36,4.91-17.15,7.09c-0.02-3.12,0.01-6.23-0.04-9.35c0.54-0.34,1.11-0.68,1.69-1.01c-0.69-1.09-1.39-2.17-1.75-3.39
		c0.2-8.27,0.07-16.54,0.07-24.81c0.56-0.31,1.11-0.62,1.72-0.92c-0.68-1.12-1.3-2.24-1.83-3.42
		c1.368-34.165-22.559-52.524-38.88,4.35c-11.8,10.55-23.83,20.85-35.71,31.31c-4.38,0.13-8.78-0.26-13.13,0.19
		c-5.828,4.786-18.007,14.516-20.4,16.56c0,0,0.379,137.767,0.39,211.49c-8.86,5.22-17.94,10.22-27.76,13.42
		c0.069-243.75,2.579-207.521-6.73-229.95l-0.03-0.28c-3.79,2.46-7.37,5.22-11.23,7.56c-4.18-3.63-8.33-7.3-12.59-10.82
		c-0.577-2.04-0.189-19.401-0.34-26.73c-6-5.43-11.99-10.87-18.01-16.27c-19.352,21.766-16.012,9.842-16.34,26.14
		c-1.675,0.814-27.938,15.806-28.94,16.38h-0.01c-12.59-9.488-26.129-9.881-39.71-3.09c-0.14,70.96-0.01,141.93-0.06,212.89
		c-3.89,1.97-7.77,3.99-11.5,6.26c-1.25,0.04-2.5,0.06-3.74,0.09c0-20,0.02-40.01-0.01-60.01c-6.65-0.01-13.3-0.01-19.95,0
		c-0.08,20.01,0.1,40.03-0.08,60.04c-8.74-0.06-17.48-0.02-26.21-0.02c0,180.747,0.303,168.203-0.46,170.46c0,0,0,0,0,0.01
		c-6.04,1.28-12.08,2.61-18.12,3.91c0.02-102.78-0.17-205.55-0.09-308.33c-3-0.11-6-0.02-8.99-0.06v-0.01
		c-5.2-0.06-10.4,0-15.59-0.04c-0.06,3.1-0.05,6.2-0.02,9.3c-1.67-1.29-3.3-2.62-4.93-3.94c-0.154-9.332,0.512-9.924-0.9-10.74
		c0.12-0.57,0.25-1.13,0.4-1.7c-39.018-8.34-80.139,2.064-95.13,39c-0.277,5.892,0.017,39.828-0.15,45.07
		c0.23,0.17,0.67,0.49,0.89,0.66c-1.304,2.347-0.881,13.208-0.78,14.21c0.33,0.19,1,0.56,1.32,0.76
		c-1.802,2.444-1.456,4.613-1.4,14.15c0.49,0.16,1.48,0.48,1.98,0.64c-2.698,5.498-1.817,0.899-1.99,14.07
		c0.41,0.18,1.22,0.54,1.62,0.72c2.037-3.527,2.709-6.63,6.29-12.35c-3.663,5.933-4.253,8.85-6.28,12.36
		c0.16,0.06,0.48,0.19,0.65,0.26c-2.773,6.255-2.22,0.806-2.27,13.81c0.45,0.17,1.35,0.52,1.8,0.69c0,0.228,0.142,1.616,0.17,1.87
		c-2.661,5.2-1.763,1.269-1.96,12.16c0.64,0.31,1.3,0.62,1.97,0.95c0,0.036-0.046,2.42-0.01,2.42
		c-2.81,5.756-1.688,0.895-1.98,11.27c0.63,0.38,1.28,0.77,1.93,1.17c0.55-0.686,0.397-0.483,0.01,0
		c0.016,1.655,0.09,3.06,0.09,3.06c-0.6,1.18-1.29,2.31-2,3.42c-0.03,2.34-0.02,4.68-0.01,7.03c0.66,0.46,1.32,0.91,2.01,1.39
		c-0.11,1.37-0.12,2.75-0.13,4.13c0,0-0.01,0-0.01,0.01c-2.255,3.867-1.86,1.406-1.86,9.32c0.62,0.37,1.25,0.75,1.91,1.13
		c0.24-0.08,0.45-0.2,0.65-0.33c-0.19,0.14-0.41,0.26-0.64,0.34c-0.1,1.68-0.09,3.37-0.02,5.07c-2.375,2.375-1.992,5.139-1.9,8.53
		c0.61,0.36,1.25,0.76,1.9,1.12h1v0.01h-0.99c-0.141,3.426,0,4.84,0,5.84c-2.25,1.9-2.11,4.87-1.89,7.55c0.7,0.56,1.4,1.15,2,1.86
		c0.1-0.07,0.2-0.14,0.31-0.21c-0.1,0.08-0.2,0.15-0.3,0.22c-0.2,2.01-0.24,4.04-0.16,6.07c-0.01,0-0.01,0-0.01,0
		c-2.1,1.64-2.09,4.3-1.85,6.73c0.67,0.6,1.36,1.23,2.02,1.89h0.01c-0.34,2.721-0.17,6.76-0.17,6.76c-0.65,0.68-1.27,1.38-1.87,2.1
		c-0.02,1.27-0.04,2.56-0.07,3.85c0.62,0.53,1.26,1.07,1.94,1.57h0.01c0,0-0.06,7.809-0.06,7.81c-1.744,1.194-2.128,3.241-1.86,5.33
		c0.62,0.54,1.27,1.09,1.94,1.64c-0.09,2.72-0.12,5.45,0.05,8.17c0,0,0,0-0.01,0c-0.69,0.63-1.35,1.28-2,1.93
		c0.01,0.95,0.03,1.92,0.12,2.89c0.3,0.31,0.91,0.9,1.2,1.2c-2.175,0.955-21.599,0.532-24,0.48
		c1.394-37.311,1.363-19.346-1.84-111.49c-5.955-168.098-6.435-88.479,2.87-335.93c-22.86-11.43-45.61-23.05-68.5-34.41
		c-1.776,1.017-28.62,15.984-31.75,17.03v0.01c-8.1,1.19-16.15,2.56-24.23,3.78v-1.73c-6.33,3.22-12.72,6.31-19.07,9.51
		c-0.8,16.32-1.47,32.64-2.22,48.95c-19.989,4.39-11.059,3.319-23.86,3.81c7.401,247.838,9.765,151.369,4.29,291.33
		c-9.208-0.016-31.655-0.012-41.1,0c-0.021-8.983-0.017-289.98,0-347.17c-10.939,0.027-29.532-0.061-37.4,0.05
		c0.04-9.77,0-19.55,0.01-29.32c-5.35-0.17-10.71,0-16.07-0.11c-0.03-4.65,0.04-9.3-0.03-13.94
		c-69.542,0.105-59.509-0.905-60.23,2.16c0.05,3.93,0.05,7.87,0,11.8c-5.35,0.06-10.7-0.01-16.04,0.02c-0.02,9.75,0,19.5-0.02,29.25
		c-11.3,0.27-22.61,0.03-33.92,0.12c-0.05,87.23,0.06,174.46-0.05,261.69c-16.12-0.04-32.23-0.01-48.34-0.01
		c0.01,28.48,0.01,56.97-0.01,85.45c-6.41-0.01-12.82,0.01-19.23,0c-0.033-107.983,0.019-547.823-0.04-659.58
		c-2.58,0.01-5.15,0.01-7.72,0c-0.173,58.762,5.269,90.131-22.34,132.27c-29.862,45.663-82.58,57.521-118.16,89.96
		c-4.32,0.79-8.75,0.14-13.11,0.4c-30.717,37.713-25.623,98.723-26.05,170.56c-9.206-0.024-26.381,0.005-40.9-0.01
		c0,41.85-0.01,83.69,0,125.53c0,0,0,0,0,0.01c-12.75-0.05-25.5-0.08-38.25,0.01c-0.036,34.003,0.045,110.75-0.06,136.14
		c-9.31,0.09-18.62,0.05-27.93,0.02c0-0.01,0-0.01,0-0.01c0-0.016-0.006-275.563-0.01-302.58c-4.447-1.476-7.87-2.67-7.87-2.67
		c0.3-12.89,0.02-25.79,0.15-38.68c-4.6-2.12-9.33-3.92-14.01-5.85c-0.2-12.29,0.01-24.58-0.09-36.87
		c-3.771-1.553-64.042-26.675-78.39-32.56c-0.07,0.03-0.21,0.09-0.28,0.11c0.08,0.28,0.15,0.56,0.2,0.84
		c-0.06-0.28-0.13-0.56-0.21-0.84c-5.79,3.77-11.66,7.42-17.5,11.13c-0.495-1.164,0.04-0.764-13.63-11.12
		c-1.361,0.659-35.248,31.541-36.25,32.49c-0.1,12.17,0,24.35-0.05,36.52c5.405-4.256,4.493-3.528,0,0.01c0,0.15,0,0.47-0.01,0.62
		c-2.3,1.49-4.27,3.41-6.35,5.18c-0.32,13.02-0.03,26.07-0.15,39.09c-1.18,0.87-2.36,1.74-3.53,2.61c0,4.735-0.008,323.444,0,330.32
		c-2.8,0.01-5.58,0.03-8.37,0.12c-0.11,24.48-0.01,48.96-0.05,73.44c-9.15,0.02-18.31,0.03-27.46-0.01
		c-0.009-17.759-0.026-346.208,0.01-362.01c-4.97-0.06-9.94-0.01-14.91-0.02c0-13.826,0.079-21.55-0.06-30.49
		c-3.88,0.09-7.76,0.01-11.64,0.04c0.02-9.54,0.05-19.09,0-28.63c-28.31-0.11-56.61-0.1-84.92-0.01c-0.15,9.55-0.09,19.1-0.02,28.64
		c-3.91-0.01-7.82,0-11.72,0c-0.01,10.15-0.01,20.29-0.01,30.44c-4.93,0.01-9.88-0.01-14.81,0.02
		c-0.01,78.34,0.01,156.68-0.01,235.03c-12.99-0.26-25.99-0.17-38.99-0.05c-0.25,26.25-0.04,52.5-0.1,78.74
		c-5.73,0.02-11.47,0.02-17.2,0c0.015-21.601,0.052-278.638-0.04-300.17c-16.14,0.03-32.29-0.06-48.43,0.05
		c0.1,66.47,0,132.95,0.04,199.42c-2.45,0.01-4.9,0.01-7.36-0.04c-0.05-20.13-0.03-40.26-0.01-60.39c-4.99,0-9.98-0.01-14.97,0
		c-0.01,20.14,0.02,40.28-0.02,60.42c-8.67,0.02-17.35-0.01-26.02,0.02c-0.02,68.71-0.02,137.43,0,206.14H27v235.63
		c116.95,0,2410.38,0,2560,0V841.63C2582.445,841.841,2576.92,841.914,2572.27,841.63z M842.28,159.21
		c3.41,3.11,7.09,5.97,10.29,9.31c-5.44,0.04-10.88,0.06-16.31-0.01C838.36,165.48,840.36,162.37,842.28,159.21z M795.06,207.43
		c7.35,6.53,14.39,13.4,21.55,20.15c-18.31,0-36.62-0.03-54.93,0.02C772.73,220.77,784.02,214.3,795.06,207.43z M820.03,238.89
		l-0.17-0.04c-4.993,5.383,5.253,6.138-83.72,4.75c4.29-3.06,8.82-5.77,13.25-8.62c24.67,0.29,49.35-0.01,74.03,0.14
		C822.35,236.43,821.16,237.64,820.03,238.89z M830.12,227.53c-0.89,0.01-1.77,0.02-2.63,0.04c-8.58-8.27-17.23-16.45-25.93-24.58
		c2.704-1.617-3.378-1.603,44.2-1.29C841.58,210.89,836.32,219.57,830.12,227.53z M812.95,194.14c5.48-4.6,10.47-9.76,15.16-15.15
		c6.53,5.08,13.27,9.9,19.67,15.15C836.17,194.17,824.55,194.18,812.95,194.14z M851.27,187.13c-4.84-3.68-9.69-7.36-14.52-11.07
		c5.81,0,11.61,0.02,17.42-0.01C853.49,179.81,852.34,183.47,851.27,187.13z M846.08,152.55c3.35-6.77,6.38-13.68,8.94-20.79
		c0.03,9.54-0.01,19.07,0.02,28.6C852.01,157.81,849.13,155.08,846.08,152.55z"/>
</g>
</svg>
