<?xml version="1.0" standalone="no"?>
<!DOCTYPE svg PUBLIC "-//W3C//DTD SVG 20010904//EN"
 "http://www.w3.org/TR/2001/REC-SVG-20010904/DTD/svg10.dtd">
<svg version="1.0" xmlns="http://www.w3.org/2000/svg"
 width="517.000000pt" height="700.000000pt" viewBox="0 0 517.000000 700.000000" style = "background: #00000080"
 preserveAspectRatio="xMidYMid meet">
<metadata>
Created by potrace 1.16, written by Peter Selinger 2001-2019
</metadata>
<g transform="translate(0.000000,700.000000) scale(0.100000,-0.100000)"
fill="#000000" stroke="none">
<path fill = "#01ded3" d="M2395 6646 c-96 -24 -261 -107 -386 -195 -72 -50 -194 -177 -264
-276 -74 -103 -185 -411 -226 -625 -31 -163 -38 -465 -14 -576 13 -57 20 -148
24 -324 8 -320 0 -436 -36 -531 l-28 -73 -97 -23 c-112 -26 -164 -49 -230
-104 -44 -37 -50 -39 -117 -39 -99 0 -228 -20 -207 -32 11 -6 49 -4 106 6 62
11 98 12 115 6 31 -12 31 -14 -1 -56 -37 -48 -73 -152 -80 -233 -10 -101 12
-158 83 -219 31 -26 73 -63 94 -82 l38 -35 3 -245 c3 -279 3 -280 -79 -363
-35 -36 -42 -48 -30 -53 14 -5 14 -9 0 -42 -17 -42 -14 -93 13 -189 17 -61 18
-63 51 -63 18 0 33 2 33 5 0 3 -9 38 -20 77 -35 128 -27 161 71 265 77 83 106
136 125 224 28 131 1 280 -64 358 -27 33 -28 36 -20 108 17 157 74 341 149
482 90 169 130 231 153 236 11 3 71 14 131 24 211 38 228 44 273 95 21 24 33
50 37 83 4 26 8 52 9 57 1 5 18 -11 36 -35 l35 -43 0 -131 c0 -125 -1 -132
-30 -184 -27 -48 -175 -224 -182 -217 -6 5 62 149 101 215 l35 61 -34 0 c-29
0 -39 -6 -59 -38 -40 -64 -81 -152 -130 -277 -26 -66 -52 -129 -58 -140 -71
-126 -111 -259 -127 -425 -20 -193 -32 -524 -25 -676 l7 -150 -49 -36 c-70
-51 -144 -90 -282 -152 -260 -116 -340 -193 -387 -373 -20 -75 -20 -73 19 -73
31 0 34 3 41 36 14 75 58 175 97 219 51 57 118 98 311 189 196 93 285 152 370
244 77 84 121 170 136 261 12 73 7 120 -39 346 -16 83 -35 202 -42 265 -11
111 -10 119 15 219 15 58 38 120 51 140 14 20 79 94 145 164 137 148 180 218
188 308 l6 60 21 -38 c19 -34 26 -38 60 -38 34 0 41 -5 74 -51 54 -75 193
-232 220 -250 14 -9 50 -18 81 -21 68 -6 105 10 221 95 94 69 185 161 240 242
23 34 63 86 89 115 25 29 58 68 74 86 l27 34 -5 -120 c-13 -268 -38 -444 -76
-538 -22 -56 -23 -58 -95 -186 -99 -176 -184 -449 -184 -590 0 -45 11 -131 26
-202 14 -68 28 -166 31 -217 l6 -92 35 0 35 0 -6 92 c-3 51 -15 136 -27 188
-12 52 -23 142 -26 200 -5 90 -2 118 19 200 34 131 115 342 163 424 100 172
119 224 143 396 11 80 33 198 48 263 30 131 27 179 -16 267 -15 31 -18 47 -11
61 16 29 12 39 -19 39 -34 0 -42 -9 -67 -75 -24 -66 -54 -115 -129 -205 -34
-41 -76 -96 -93 -121 -94 -139 -349 -351 -401 -334 -49 15 -255 268 -314 385
-24 47 -73 137 -109 200 -85 150 -115 236 -136 390 -32 241 -25 291 83 603 25
71 43 132 40 136 -2 4 18 53 45 108 35 72 62 112 92 138 51 45 218 126 308
150 36 9 81 24 100 33 24 11 78 18 177 22 116 4 146 8 159 22 14 13 15 20 5
31 -9 12 -7 16 16 22 16 3 42 19 58 35 l30 29 0 -122 c0 -103 3 -127 20 -158
27 -48 141 -153 188 -172 42 -18 57 -46 50 -94 -5 -31 -4 -33 25 -33 37 0 43
8 44 62 0 44 -26 78 -61 78 -9 0 -52 35 -96 78 -93 89 -105 116 -105 240 0 76
1 81 23 84 19 3 22 10 25 57 5 94 -24 160 -143 325 -19 26 -35 54 -35 61 0 15
77 55 106 55 30 0 144 -58 193 -98 60 -49 82 -70 114 -115 l28 -37 -30 -6
c-17 -4 -31 -8 -31 -9 0 -2 17 -38 39 -81 57 -116 110 -264 139 -389 22 -96
26 -133 26 -285 0 -170 -12 -308 -36 -420 l-12 -55 -7 70 c-4 39 -7 162 -8
275 -2 245 -12 306 -76 430 -45 87 -48 90 -81 90 -19 0 -34 -3 -34 -6 0 -4 13
-30 30 -59 56 -97 82 -182 87 -288 l6 -97 -60 2 c-73 4 -84 -4 -128 -91 -52
-105 -53 -111 -11 -111 33 0 36 3 62 59 30 67 56 96 79 88 27 -11 17 -74 -37
-238 l-53 -159 -52 -37 c-29 -21 -53 -41 -53 -45 0 -5 16 -8 35 -8 l35 0 -22
-45 c-12 -25 -27 -45 -33 -45 -16 0 -57 -58 -50 -70 10 -16 72 -11 91 7 24 24
110 206 129 273 22 77 48 130 62 130 14 0 15 -20 10 -182 -6 -181 -7 -184 -46
-294 -59 -164 -72 -298 -38 -389 16 -45 57 -102 135 -187 76 -84 94 -115 117
-204 22 -85 20 -99 -35 -208 -62 -123 -64 -155 -16 -252 45 -89 91 -134 128
-127 l27 5 -39 52 c-95 126 -101 182 -30 320 28 54 50 110 50 125 0 48 -37
170 -63 210 -14 21 -58 73 -97 115 -87 95 -120 159 -120 239 0 49 3 57 19 57
22 0 23 4 46 185 12 96 27 158 55 236 76 210 104 382 103 644 0 207 -27 354
-98 528 -6 14 -2 17 19 17 31 0 32 9 5 80 -72 192 -166 300 -328 380 -52 26
-73 31 -138 31 -43 0 -91 -5 -108 -11 -26 -10 -32 -9 -45 8 -8 11 -27 36 -42
55 -31 40 -134 111 -148 102 -6 -3 -55 3 -109 14 -114 24 -285 27 -366 7z
m330 -22 c110 -23 137 -32 176 -61 41 -31 109 -119 113 -146 1 -7 28 -48 61
-92 65 -87 111 -168 125 -215 8 -28 6 -31 -28 -45 -20 -9 -58 -38 -83 -65 -43
-47 -49 -50 -100 -52 -30 0 -62 -1 -71 0 -19 2 -112 -32 -208 -76 -36 -17
-105 -42 -155 -57 -127 -38 -267 -109 -318 -162 -50 -51 -106 -158 -141 -268
-92 -292 -126 -404 -131 -433 -11 -55 -29 -30 -38 49 -11 111 8 315 43 469 60
263 94 348 175 438 57 63 104 97 213 152 69 34 100 43 194 56 130 17 275 46
366 71 l63 18 72 -38 c70 -36 97 -44 110 -31 7 8 -25 35 -68 57 -61 31 -192
26 -310 -13 -33 -11 -137 -30 -232 -44 -144 -21 -183 -30 -247 -60 -183 -84
-291 -198 -345 -364 -11 -34 -39 -146 -61 -248 -38 -171 -41 -198 -42 -342 -1
-125 5 -191 25 -322 29 -178 53 -510 42 -568 -16 -88 -67 -119 -245 -151 -144
-26 -144 -26 -130 0 23 42 41 122 49 217 12 139 -4 590 -23 677 -11 47 -16
122 -16 230 0 134 5 187 29 325 34 187 43 220 110 398 77 204 90 225 236 386
151 168 452 331 620 335 22 1 99 -11 170 -25z m-1287 -2636 c-131 -200 -185
-326 -234 -549 -15 -68 -28 -126 -30 -128 -2 -2 -26 13 -54 34 -60 44 -90 98
-97 174 -10 111 53 275 113 295 27 10 30 14 20 29 -9 16 -5 24 29 54 63 55
182 111 239 112 27 1 28 0 14 -21z m302 -1173 c31 -139 31 -242 -2 -322 -30
-72 -85 -163 -101 -163 -12 0 -3 527 13 670 21 201 21 200 45 50 13 -74 33
-180 45 -235z"/>
<path fill = "#01ded3"  d="M3860 4011 c-21 -6 -10 -12 65 -38 50 -17 113 -36 140 -42 97 -23
193 -107 243 -213 27 -56 38 -118 22 -118 -7 0 -65 53 -129 119 -141 144 -191
181 -240 180 l-36 0 30 -22 c16 -12 91 -81 165 -152 74 -72 156 -146 183 -165
45 -32 47 -35 47 -84 0 -28 -12 -137 -26 -242 -18 -126 -24 -208 -20 -238 7
-44 9 -46 39 -46 l32 0 1 93 c1 50 11 158 23 239 11 82 21 151 21 155 0 18 36
-46 66 -120 l34 -82 0 -195 c0 -107 -7 -280 -14 -385 -20 -255 -30 -569 -22
-638 7 -55 9 -57 37 -57 l29 0 0 188 c0 103 5 243 10 312 5 69 15 205 22 303
11 163 13 177 31 177 16 0 18 5 13 38 -3 20 -8 64 -12 97 -3 33 -12 89 -19
125 -8 36 -17 96 -20 134 -10 103 -70 309 -113 389 -58 108 -104 143 -263 200
-74 26 -158 52 -188 58 -30 6 -69 18 -87 25 -18 8 -35 14 -36 13 -2 -1 -14 -4
-28 -8z"/>
<path fill = "#01ded3"  d="M691 3909 c-55 -11 -99 -51 -151 -139 -37 -64 -130 -264 -130 -281 0
-5 12 -9 26 -9 24 0 25 -3 19 -27 -69 -267 -99 -532 -125 -1073 -6 -124 -13
-249 -16 -277 l-6 -53 36 0 c29 0 36 4 36 19 0 62 32 656 41 756 28 331 103
683 179 853 l29 62 88 2 88 2 -77 3 c-80 4 -97 15 -63 43 13 11 13 14 -2 26
-17 13 -16 16 16 43 18 16 53 34 77 40 24 6 44 13 44 16 0 7 -59 4 -109 -6z"/>
<path fill = "#01ded3"  d="M290 1969 c0 -5 7 -40 15 -77 17 -80 79 -496 94 -635 l11 -97 -44
-83 c-51 -96 -71 -170 -61 -232 6 -45 7 -45 46 -45 21 0 39 -4 39 -10 0 -5 10
-10 23 -10 13 0 27 -4 33 -10 5 -5 22 -6 38 -2 25 7 26 9 12 21 -26 22 -19 41
14 41 25 0 32 6 48 42 l19 43 8 -55 c4 -30 14 -72 22 -93 15 -36 104 -127 125
-127 6 0 43 -26 81 -57 l71 -57 -34 -9 c-23 -6 -61 -36 -119 -96 -48 -48 -166
-161 -264 -252 l-178 -164 37 -3 c34 -3 43 2 108 66 72 70 123 99 111 62 -4
-13 1 -19 22 -23 24 -5 34 0 66 36 26 29 43 41 58 39 14 -2 34 8 55 29 38 37
42 49 17 49 -13 0 -11 6 11 29 25 26 26 30 11 38 -14 8 -11 16 23 59 22 27 54
63 72 79 l32 30 28 -33 c15 -19 30 -47 34 -63 4 -21 11 -29 22 -27 11 2 25
-12 41 -41 30 -57 52 -81 73 -81 10 0 25 -11 34 -25 13 -20 25 -25 56 -25 l40
0 -76 88 -76 87 5 52 c4 32 32 115 75 220 65 156 124 329 252 739 27 89 59
173 71 187 11 15 22 35 24 46 2 10 17 38 34 61 17 23 33 57 37 75 3 20 15 37
30 46 32 16 166 17 264 2 109 -18 512 -35 524 -23 7 7 -4 10 -30 10 -22 0 -92
9 -154 20 -63 12 -128 19 -145 17 -28 -3 -27 -4 13 -11 75 -15 53 -21 -51 -15
-193 13 -234 33 -89 44 48 4 147 13 221 21 109 11 169 12 315 3 185 -11 271
-8 526 16 280 27 365 28 562 10 174 -16 206 -16 490 -1 475 25 707 30 755 17
60 -16 135 -70 158 -113 l20 -37 -32 -110 c-35 -117 -156 -403 -230 -541 -25
-46 -88 -156 -140 -243 -52 -87 -111 -193 -131 -235 -20 -43 -58 -116 -84
-164 l-49 -86 -52 -7 c-29 -4 -95 -16 -147 -26 -189 -39 -313 -44 -1220 -45
-678 -1 -922 -5 -1085 -17 l-210 -16 200 5 c110 3 277 10 370 15 211 11 547
11 520 -1 -11 -4 -180 -18 -375 -29 -195 -12 -429 -29 -520 -38 -96 -10 -248
-16 -365 -16 -112 1 -187 -3 -170 -7 17 -4 55 -9 85 -10 47 -2 37 -5 -67 -19
-123 -17 -169 -31 -97 -31 21 0 98 7 169 15 146 17 421 20 507 6 31 -5 109
-12 175 -16 65 -3 162 -10 217 -16 54 -5 182 -9 285 -9 206 0 254 8 506 78
l140 40 481 4 c264 3 486 8 493 12 10 6 314 35 374 36 9 0 17 5 17 11 0 8 -27
10 -92 5 -51 -3 -160 -8 -243 -12 -82 -3 -158 -8 -168 -11 -18 -5 -231 7 -225
12 2 2 64 8 138 14 74 6 177 20 229 31 52 11 115 20 142 20 53 0 81 8 74 20
-7 12 133 289 225 445 42 72 102 174 133 227 31 53 72 132 91 175 18 43 56
130 84 193 69 159 115 313 107 357 -8 42 -58 93 -121 124 -41 19 -69 24 -169
27 -119 5 -630 -12 -859 -28 -81 -5 -171 -4 -285 6 -231 19 -363 17 -611 -7
-149 -15 -265 -20 -375 -18 -314 7 -433 4 -637 -15 l-207 -19 -53 22 c-75 32
-144 37 -188 14 -43 -22 -52 -57 -18 -66 22 -6 22 -7 3 -21 -11 -9 -30 -16
-42 -16 -18 0 -27 -14 -53 -81 -17 -45 -33 -98 -36 -118 -2 -20 -31 -97 -63
-171 -137 -315 -233 -548 -296 -716 -37 -98 -69 -181 -71 -183 -2 -2 -33 24
-68 57 -36 33 -81 68 -101 78 -48 22 -114 88 -132 131 -8 20 -17 75 -20 122
-4 73 -2 93 16 131 11 26 16 49 11 54 -18 18 78 144 130 171 21 10 40 9 115
-7 50 -10 104 -17 120 -16 53 5 -137 48 -212 48 -91 0 -126 -25 -209 -151 -35
-54 -67 -105 -70 -113 -3 -9 -10 -16 -14 -16 -15 0 -53 135 -47 161 4 13 34
57 67 97 54 65 64 72 96 72 20 0 54 11 77 24 23 14 67 32 98 40 64 16 105 11
169 -23 41 -21 100 -28 100 -12 0 8 -73 43 -115 54 -58 16 -184 18 -254 3 -90
-19 -141 -48 -208 -119 -57 -60 -63 -58 -63 30 0 39 -22 189 -71 478 -31 190
-26 175 -65 175 -19 0 -34 -5 -34 -11z m2745 -1703 l110 -14 -75 -2 c-63 -2
-69 -4 -35 -9 l40 -7 -45 -13 c-25 -7 -90 -25 -145 -41 -55 -15 -124 -33 -153
-39 -100 -21 -326 -13 -772 27 -173 15 -188 18 -135 24 103 12 449 30 715 38
l255 8 -335 -2 c-351 -3 -347 -1 80 28 253 17 360 18 495 2z"/>
<path fill = "#01ded3"  d="M4811 561 c-11 -7 -8 -11 10 -17 l24 -7 -28 -12 c-27 -11 -24 -13
120 -93 133 -73 212 -112 228 -112 3 0 5 16 5 35 0 40 -1 41 -195 148 -121 68
-139 74 -164 58z"/>
</g>
</svg>
